<?xml version="1.0" standalone="no"?>
<!DOCTYPE svg PUBLIC "-//W3C//DTD SVG 20010904//EN"
 "http://www.w3.org/TR/2001/REC-SVG-20010904/DTD/svg10.dtd">
<svg version="1.0" xmlns="http://www.w3.org/2000/svg"
 width="512.000000pt" height="512.000000pt" viewBox="0 0 512.000000 512.000000"
 preserveAspectRatio="xMidYMid meet">
<metadata>
Created by potrace 1.10, written by Peter Selinger 2001-2011
</metadata>
<g transform="translate(0.000000,512.000000) scale(0.050000,-0.050000)"
fill="#cccccc" stroke="none">
<path d="M8724 10176 c-29 -29 -32 -116 -5 -116 11 0 15 14 8 30 -18 48 10
107 34 69 15 -24 18 -23 19 6 0 41 -22 45 -56 11z"/>
<path d="M8903 10067 c12 -15 17 -50 12 -77 -5 -28 -3 -55 4 -59 8 -5 16 30
18 77 3 65 -3 85 -26 85 -23 0 -25 -6 -8 -26z"/>
<path d="M8447 9865 c9 -14 6 -25 -7 -25 -14 0 -15 -12 -3 -35 9 -19 14 -46 9
-60 -5 -14 6 -25 27 -25 21 0 28 7 17 15 -11 8 -23 38 -26 65 -5 40 -1 44 15
20 11 -16 21 -20 21 -7 0 12 -15 34 -34 50 -23 18 -29 19 -19 2z"/>
<path d="M8920 9650 c2 -33 3 -64 0 -70 -20 -56 -7 -120 26 -120 22 0 31 -9
22 -23 -9 -15 -5 -18 12 -7 21 13 20 21 -5 39 -21 15 -32 55 -32 119 0 52 -6
101 -13 109 -8 7 -12 -14 -10 -47z"/>
<path d="M8415 9651 c-31 -23 -32 -29 -5 -51 24 -20 32 -19 42 7 19 51 1 73
-37 44z"/>
<path d="M7153 9005 c-4 -8 -8 -39 -8 -69 0 -108 -231 -420 -378 -509 -102
-62 -99 -64 -98 65 2 266 -340 372 -521 161 -161 -189 -28 -431 239 -434 l83
0 -54 -45 c-77 -62 -293 -147 -392 -152 -16 -1 -24 -20 -20 -47 16 -113 357 9
554 198 61 59 119 107 130 107 30 0 216 121 289 188 132 121 303 424 303 535
0 21 -114 23 -127 2z m-660 -387 c37 -23 68 -52 69 -65 13 -137 11 -169 -14
-208 -56 -88 -303 -34 -349 76 -70 169 126 301 294 197z"/>
<path d="M3194 8891 c-200 -71 -276 -299 -156 -465 187 -258 562 -143 562 172
0 227 -195 368 -406 293z m244 -160 c59 -59 70 -183 22 -242 -94 -112 -281
-98 -333 24 -86 208 154 376 311 218z"/>
<path d="M5420 8209 c-82 -14 -217 -31 -300 -38 -82 -8 -333 -40 -557 -72
-224 -32 -451 -63 -505 -69 -54 -5 -142 -15 -196 -20 -54 -6 -282 -37 -507
-69 -225 -33 -457 -64 -517 -70 -163 -17 -237 -25 -360 -41 l-113 -14 -64
-217 c-35 -119 -68 -242 -73 -273 -6 -31 -32 -129 -60 -219 l-49 -162 1 -1560
0 -1560 -65 -51 c-36 -28 -101 -84 -145 -124 -44 -41 -132 -115 -195 -165
-155 -122 -156 -121 135 -158 33 -4 204 -38 380 -76 176 -37 361 -74 410 -81
50 -7 194 -35 321 -61 128 -27 260 -53 295 -59 35 -5 93 -15 129 -20 36 -6
151 -29 255 -51 105 -23 214 -45 244 -49 30 -4 62 -12 71 -17 9 -6 65 -16 124
-23 59 -6 247 -42 419 -79 172 -38 349 -73 394 -80 l81 -12 139 181 c184 242
230 302 280 365 23 29 64 57 90 62 26 5 143 46 258 90 116 45 291 110 390 145
211 74 397 143 700 258 121 46 242 88 268 93 87 16 123 46 113 93 -5 24 -14
206 -20 404 -22 744 -72 2125 -83 2263 l-11 143 -74 15 c-40 9 -90 19 -110 22
-21 4 -141 39 -268 77 -127 39 -242 70 -256 70 -15 0 -131 32 -258 70 -127 39
-264 75 -303 82 -39 6 -108 24 -152 40 -45 15 -99 28 -121 28 -31 0 -37 10
-28 45 15 59 73 419 82 512 18 171 35 296 50 377 19 100 21 100 -239 55z m112
-144 c-20 -66 -92 -385 -102 -455 -5 -38 -15 -104 -21 -145 -21 -154 0 -146
-489 -176 -83 -5 -411 -36 -730 -69 -561 -57 -848 -84 -910 -84 -16 0 -236
-22 -489 -48 -527 -55 -487 -62 -433 81 23 61 46 136 51 166 31 170 105 335
153 338 110 7 266 28 578 77 182 29 362 56 400 60 39 4 111 12 161 18 50 5
262 37 470 70 208 33 431 65 495 71 126 11 752 107 784 120 54 21 92 10 82
-24z m-152 -1145 c0 -143 -5 -260 -11 -260 -6 0 -170 -18 -365 -39 -195 -22
-412 -44 -484 -50 -71 -6 -202 -17 -290 -25 -310 -29 -351 -24 -760 84 -143
37 -291 73 -330 80 -38 6 -153 34 -253 61 -101 27 -209 53 -240 56 -86 11
-288 58 -280 66 9 10 360 42 613 57 116 7 224 16 240 21 17 4 93 13 170 19 77
6 302 28 500 50 198 21 450 44 560 51 110 7 340 29 510 48 171 20 335 37 365
38 l55 3 0 -260z m614 40 c16 0 152 -35 303 -77 150 -42 361 -97 468 -123
l195 -47 0 -101 c0 -56 9 -300 20 -542 10 -242 24 -602 29 -800 6 -198 15
-522 21 -720 6 -198 15 -388 20 -421 l10 -62 -195 -64 c-195 -65 -509 -175
-818 -286 -90 -32 -181 -62 -203 -66 -21 -4 -97 -31 -168 -59 -71 -29 -135
-52 -143 -52 -7 0 -13 800 -13 1778 l0 1777 222 -67 c123 -38 236 -68 252 -68z
m-3415 -290 c39 -6 175 -38 302 -71 128 -33 258 -65 290 -70 33 -6 177 -42
322 -80 144 -38 281 -69 305 -69 l42 0 -5 -1072 -5 -1073 -290 -67 c-159 -38
-429 -101 -599 -141 -170 -40 -335 -76 -366 -80 -31 -3 -110 -20 -174 -37 -64
-16 -120 -30 -124 -30 -4 0 -7 646 -7 1437 l0 1436 119 -36 c66 -20 151 -41
190 -47z m2801 -1356 l0 -1205 -275 34 c-151 19 -341 40 -422 46 -82 6 -154
15 -160 19 -16 10 -356 38 -413 34 -130 -7 -120 -98 -116 1072 l4 1055 116 7
c64 4 364 36 666 73 303 36 561 67 575 68 20 2 25 -250 25 -1203z m-1190
-1225 c121 -14 288 -32 370 -38 83 -7 182 -16 220 -19 39 -4 189 -19 335 -34
l265 -26 0 -197 c0 -179 -3 -197 -35 -187 -38 11 -355 46 -570 62 -74 5 -196
15 -270 20 -74 6 -396 37 -715 70 -319 33 -688 65 -820 72 -347 17 -344 52 10
96 39 5 172 33 297 61 125 29 304 66 398 82 94 17 184 37 199 46 40 22 65 22
316 -8z m-1680 -338 c77 -7 356 -39 620 -71 264 -32 552 -63 640 -70 88 -6
390 -38 670 -72 281 -33 605 -65 720 -72 116 -6 213 -14 218 -18 4 -4 -46 -68
-112 -142 -65 -75 -171 -201 -235 -281 -122 -153 -142 -162 -269 -126 -37 11
-113 25 -169 31 -56 7 -226 39 -378 71 -152 33 -319 64 -370 70 -51 6 -237 42
-414 79 -177 37 -363 73 -415 79 -51 6 -217 37 -370 70 -152 32 -303 63 -336
68 -164 23 -381 59 -387 65 -26 21 350 341 396 336 28 -2 114 -10 191 -17z"/>
<path d="M5752 5638 c-67 -79 -66 -127 6 -200 132 -131 368 38 256 184 -72 94
-190 102 -262 16z"/>
<path d="M6474 5678 c-20 -12 -45 -45 -56 -73 -74 -195 211 -310 292 -118 59
140 -101 269 -236 191z"/>
<path d="M6170 5174 c-109 -44 -179 -90 -246 -160 l-67 -69 38 -62 38 -62 59
62 c162 173 443 198 565 50 42 -50 90 -43 76 12 -7 25 -13 66 -13 91 0 93
-320 192 -450 138z"/>
<path d="M7645 7747 c-14 -6 -25 -45 -25 -89 0 -77 -1 -78 -77 -78 -61 0 -82
-10 -103 -49 -38 -71 1 -111 110 -111 79 0 84 -3 75 -50 -19 -100 10 -153 81
-146 62 6 64 9 64 101 l0 95 93 0 c78 0 94 7 104 43 20 77 -19 117 -113 117
l-84 0 0 85 c0 87 -45 116 -125 82z"/>
<path d="M1108 6354 c-137 -125 -106 -323 63 -403 99 -47 207 -18 278 77 176
230 -129 521 -341 326z m212 -89 c99 -69 53 -205 -68 -205 -124 0 -150 184
-32 226 46 16 46 16 100 -21z"/>
<path d="M1040 4861 l0 -81 -81 0 c-80 0 -81 -1 -75 -65 6 -61 10 -65 81 -63
74 3 75 2 75 -75 0 -87 39 -119 92 -75 21 17 28 44 20 82 -10 52 -7 56 56 56
78 0 121 41 102 99 -10 32 -30 41 -91 41 -77 0 -78 0 -73 75 4 68 -1 76 -51
81 -52 6 -55 2 -55 -75z"/>
<path d="M7850 4441 c-131 -53 -168 -220 -71 -317 115 -115 291 -63 331 97 34
138 -127 275 -260 220z m140 -121 c75 -82 -46 -206 -129 -131 -48 44 -52 85
-12 130 41 45 101 45 141 1z"/>
</g>
</svg>
